<svg width="38" height="38" viewBox="0 0 38 38" fill="none" xmlns="http://www.w3.org/2000/svg">
<path d="M14.3354 13.8782H21.5575C23.1585 13.8782 24.457 15.3191 24.457 16.7777C24.457 18.3787 23.1585 19.6773 21.5575 19.6773H14.3354V13.8782Z" stroke="white" stroke-width="1.5" stroke-miterlimit="10" stroke-linecap="round" stroke-linejoin="round"/>
<path d="M14.3354 19.6594H22.5892C24.4215 19.6594 25.8979 20.958 25.8979 22.5589C25.8979 24.1599 24.4215 25.4585 22.5892 25.4585H14.3354V19.6594Z" stroke="white" stroke-width="1.5" stroke-miterlimit="10" stroke-linecap="round" stroke-linejoin="round"/>
<path d="M19.3873 25.4407V28.3403" stroke="white" stroke-width="1.5" stroke-miterlimit="10" stroke-linecap="round" stroke-linejoin="round"/>
<path d="M15.7763 25.4407V28.3403" stroke="white" stroke-width="1.5" stroke-miterlimit="10" stroke-linecap="round" stroke-linejoin="round"/>
<path d="M19.3873 10.9787V13.8782" stroke="white" stroke-width="1.5" stroke-miterlimit="10" stroke-linecap="round" stroke-linejoin="round"/>
<path d="M15.7763 10.9787V13.8782" stroke="white" stroke-width="1.5" stroke-miterlimit="10" stroke-linecap="round" stroke-linejoin="round"/>
<path d="M17.0748 13.8782H12.0229" stroke="white" stroke-width="1.5" stroke-miterlimit="10" stroke-linecap="round" stroke-linejoin="round"/>
<path d="M17.0748 25.4407H12.0229" stroke="white" stroke-width="1.5" stroke-miterlimit="10" stroke-linecap="round" stroke-linejoin="round"/>
<path d="M18.9604 34.8745C27.4748 34.8745 34.3771 27.9722 34.3771 19.4578C34.3771 10.9434 27.4748 4.04117 18.9604 4.04117C10.446 4.04117 3.54376 10.9434 3.54376 19.4578C3.54376 27.9722 10.446 34.8745 18.9604 34.8745Z" stroke="white" stroke-width="1.5" stroke-miterlimit="10"/>
</svg>
