<svg width="18" height="18" viewBox="0 0 18 18" fill="none" xmlns="http://www.w3.org/2000/svg">
<path d="M17.6149 8.66701C17.6149 3.97861 13.813 0.17791 9.12303 0.17791C4.43309 0.17791 0.631149 3.97861 0.631149 8.66701C0.631149 13.3554 4.43309 17.1561 9.12303 17.1561C13.813 17.1561 17.6149 13.3554 17.6149 8.66701Z" fill="#0B0B0F"/>
<path d="M8.66044 9.62492L7.44889 9.9112C7.18456 9.25057 7.07441 8.53488 7.11847 7.81919C7.16252 7.0925 7.39381 6.38784 7.80134 5.72721C7.99959 5.4079 8.23089 5.12163 8.49523 4.85737C8.60537 4.74727 8.72652 4.64818 8.84767 4.54908C8.97984 4.43898 8.88072 4.22977 8.71551 4.25179C8.12075 4.33988 7.54802 4.53807 7.03035 4.82434C6.30342 5.22072 5.70866 5.79327 5.24607 6.55299C4.86058 7.18059 4.62927 7.84123 4.55217 8.53489C4.47508 9.21754 4.53014 9.9112 4.73941 10.5608L3.53888 10.8471C3.39569 10.8801 3.29656 11.0343 3.34061 11.1774C3.36264 11.2435 3.4067 11.3095 3.46177 11.3426L6.64485 13.3024C6.77702 13.3795 6.94225 13.3465 7.01934 13.2144L8.97986 10.0323C9.05695 9.90019 9.02391 9.73502 8.89174 9.65795C8.82566 9.6139 8.75957 9.6029 8.68247 9.62492H8.66044Z" fill="white"/>
<path d="M13.6719 8.79913C13.749 8.11648 13.6829 7.43383 13.4956 6.7732L14.6962 6.48694C14.8394 6.45391 14.9385 6.29975 14.8944 6.15662C14.8724 6.09056 14.8283 6.0245 14.7733 5.99147L11.5902 4.03159C11.458 3.95452 11.2928 3.99856 11.2157 4.11968L9.25521 7.3017C9.17811 7.43383 9.22215 7.599 9.34331 7.67607C9.40939 7.7091 9.47548 7.73112 9.55258 7.7091L10.7531 7.42282C11.0285 8.08345 11.1386 8.81015 11.0946 9.52583C11.0505 10.2525 10.8192 10.9462 10.4117 11.6178C10.2134 11.9371 9.98214 12.2234 9.7178 12.4877C9.60766 12.5978 9.49752 12.6969 9.37637 12.7959C9.2442 12.9061 9.34332 13.1153 9.50853 13.0932C10.0923 13.0052 10.665 12.807 11.1827 12.5207C11.9096 12.1243 12.5044 11.5518 12.967 10.792C13.3525 10.1644 13.5838 9.5038 13.6609 8.79913H13.6719Z" fill="white"/>
</svg>
