<svg width="41" height="40" viewBox="0 0 41 40" fill="none" xmlns="http://www.w3.org/2000/svg">
<rect x="0.836487" y="0.5" width="39" height="39" rx="19.5" fill="#100A12" stroke="#2E2E2E"/>
<g clip-path="url(#clip0_10_2217)">
<path d="M20.8125 9.5238C18.8347 9.5238 16.9013 10.1103 15.2568 11.2091C13.6123 12.3079 12.3306 13.8697 11.5737 15.697C10.8169 17.5242 10.6188 19.5349 11.0047 21.4747C11.3905 23.4145 12.3429 25.1963 13.7415 26.5949C15.14 27.9934 16.9218 28.9458 18.8616 29.3317C20.8014 29.7175 22.8121 29.5195 24.6394 28.7626C26.4666 28.0057 28.0284 26.724 29.1272 25.0795C30.226 23.435 30.8125 21.5016 30.8125 19.5238C30.8097 16.8725 29.7552 14.3306 27.8804 12.4559C26.0057 10.5812 23.4638 9.52667 20.8125 9.5238V9.5238ZM28.0184 15.3571H25.3342C24.7333 13.9646 23.9422 12.6622 22.9834 11.4871C25.1054 12.0646 26.9145 13.455 28.0184 15.3571ZM24.5625 19.5238C24.5557 20.3723 24.422 21.2149 24.1659 22.0238H17.4592C17.2031 21.2149 17.0694 20.3723 17.0625 19.5238C17.0694 18.6754 17.2031 17.8327 17.4592 17.0238H24.1659C24.422 17.8327 24.5557 18.6754 24.5625 19.5238ZM18.1275 23.6905H23.4975C22.7902 25.0869 21.886 26.3745 20.8125 27.5138C19.7387 26.3748 18.8344 25.0872 18.1275 23.6905ZM18.1275 15.3571C18.8348 13.9607 19.7391 12.6731 20.8125 11.5338C21.8864 12.6728 22.7907 13.9604 23.4975 15.3571H18.1275ZM18.6459 11.4871C17.6856 12.662 16.893 13.9644 16.2909 15.3571H13.6067C14.7116 13.4542 16.5222 12.0636 18.6459 11.4871ZM12.8634 17.0238H15.7292C15.5132 17.8398 15.4012 18.6798 15.3959 19.5238C15.4012 20.3679 15.5132 21.2079 15.7292 22.0238H12.8634C12.3512 20.3965 12.3512 18.6511 12.8634 17.0238ZM13.6067 23.6905H16.2909C16.893 25.0832 17.6856 26.3857 18.6459 27.5605C16.5222 26.984 14.7116 25.5934 13.6067 23.6905ZM22.9834 27.5605C23.9422 26.3854 24.7333 25.083 25.3342 23.6905H28.0184C26.9145 25.5926 25.1054 26.983 22.9834 27.5605ZM28.7617 22.0238H25.8959C26.1119 21.2079 26.2239 20.3679 26.2292 19.5238C26.2239 18.6798 26.1119 17.8398 25.8959 17.0238H28.76C29.2723 18.6511 29.2723 20.3965 28.76 22.0238H28.7617Z" fill="white"/>
</g>
<defs>
<clipPath id="clip0_10_2217">
<rect width="20" height="20" fill="white" transform="translate(10.8125 9.5238)"/>
</clipPath>
</defs>
</svg>
