<svg width="18" height="18" viewBox="0 0 18 18" fill="none" xmlns="http://www.w3.org/2000/svg">
<g clip-path="url(#clip0_24_160)">
<path d="M9.30499 2.22111C11.5745 2.22111 11.8437 2.22961 12.7397 2.2707C13.6662 2.3132 14.6203 2.52428 15.2954 3.19932C15.9768 3.88074 16.1815 4.82566 16.224 5.75499C16.2651 6.65103 16.2736 6.9202 16.2736 9.1897C16.2736 11.4592 16.2651 11.7284 16.224 12.6244C16.1822 13.5459 15.9662 14.5093 15.2954 15.1801C14.614 15.8615 13.6697 16.0662 12.7397 16.1087C11.8437 16.1498 11.5745 16.1583 9.30499 16.1583C7.03549 16.1583 6.76633 16.1498 5.87028 16.1087C4.95583 16.0669 3.97974 15.8459 3.31462 15.1801C2.63674 14.5022 2.42849 13.5481 2.38599 12.6244C2.34491 11.7284 2.33641 11.4592 2.33641 9.1897C2.33641 6.9202 2.34491 6.65103 2.38599 5.75499C2.42778 4.83699 2.64595 3.86799 3.31462 3.19932C3.99462 2.51932 4.94308 2.3132 5.87028 2.2707C6.76633 2.22961 7.03549 2.22111 9.30499 2.22111ZM9.30499 0.689697C6.99653 0.689697 6.70683 0.699614 5.80016 0.740697C4.4862 0.800906 3.18145 1.16641 2.23158 2.11628C1.27816 3.0697 0.916201 4.37161 0.855993 5.68486C0.814909 6.59153 0.804993 6.88124 0.804993 9.1897C0.804993 11.4982 0.814909 11.7879 0.855993 12.6945C0.916201 14.0071 1.28312 15.3154 2.23158 16.2631C3.18428 17.2158 4.48833 17.5785 5.80016 17.6387C6.70683 17.6798 6.99653 17.6897 9.30499 17.6897C11.6135 17.6897 11.9032 17.6798 12.8098 17.6387C14.1231 17.5785 15.4292 17.2123 16.3784 16.2631C17.3325 15.309 17.6938 14.0078 17.754 12.6945C17.7951 11.7879 17.805 11.4982 17.805 9.1897C17.805 6.88124 17.7951 6.59153 17.754 5.68486C17.6938 4.37091 17.3276 3.06545 16.3784 2.11628C15.4271 1.16499 14.1195 0.800197 12.8098 0.740697C11.9032 0.699614 11.6135 0.689697 9.30499 0.689697Z" fill="white"/>
<path d="M9.305 4.82495C6.89454 4.82495 4.94025 6.77924 4.94025 9.1897C4.94025 11.6002 6.89454 13.5545 9.305 13.5545C11.7155 13.5545 13.6697 11.6002 13.6697 9.1897C13.6697 6.77924 11.7155 4.82495 9.305 4.82495ZM9.305 12.023C7.74029 12.023 6.47166 10.7544 6.47166 9.1897C6.47166 7.62499 7.74029 6.35637 9.305 6.35637C10.8697 6.35637 12.1383 7.62499 12.1383 9.1897C12.1383 10.7544 10.8697 12.023 9.305 12.023Z" fill="white"/>
<path d="M13.8426 5.67208C14.4059 5.67208 14.8626 5.21541 14.8626 4.65208C14.8626 4.08875 14.4059 3.63208 13.8426 3.63208C13.2792 3.63208 12.8226 4.08875 12.8226 4.65208C12.8226 5.21541 13.2792 5.67208 13.8426 5.67208Z" fill="white"/>
</g>
<defs>
<clipPath id="clip0_24_160">
<rect width="17" height="17" fill="white" transform="translate(0.804993 0.689697)"/>
</clipPath>
</defs>
</svg>
