<svg width="599" height="1046" viewBox="0 0 599 1046" fill="none" xmlns="http://www.w3.org/2000/svg">
<g opacity="0.5">
<path opacity="0.0344828" d="M130.646 802.623C135.553 808.471 142.951 812.096 152.677 813.555C162.411 815.015 174.414 814.293 188.412 811.495C216.407 805.9 252.172 792.046 293.29 771.128C375.512 729.3 478.939 659.327 584.064 571.117C689.189 482.907 776.059 393.201 831.529 319.492C859.27 282.631 879.123 249.815 889.495 223.217C894.681 209.918 897.476 198.222 897.729 188.382C897.981 178.551 895.695 170.636 890.788 164.788C885.881 158.939 878.483 155.314 868.757 153.855C859.023 152.395 847.02 153.117 833.022 155.915C805.027 161.511 769.263 175.364 728.144 196.282C645.922 238.11 542.495 308.083 437.37 396.293C332.245 484.504 245.375 574.209 189.905 647.919C162.164 684.78 142.311 717.596 131.939 744.193C126.753 757.493 123.958 769.188 123.705 779.028C123.453 788.859 125.739 796.775 130.646 802.623Z" stroke="#2B2C3B" stroke-width="2"/>
<path opacity="0.0689655" d="M159.887 838.502C165.286 843.901 172.972 846.868 182.788 847.473C192.612 848.079 204.506 846.313 218.207 842.306C245.608 834.292 280.029 817.375 319.168 792.953C397.431 744.117 494.367 665.396 591.403 568.36C688.44 471.323 767.161 374.387 815.996 296.124C840.418 256.985 857.336 222.564 865.35 195.163C869.357 181.463 871.123 169.568 870.517 159.744C869.911 149.928 866.945 142.242 861.546 136.844C856.148 131.445 848.462 128.478 838.646 127.873C828.822 127.267 816.927 129.032 803.227 133.04C775.826 141.054 741.405 157.971 702.266 182.393C624.003 231.229 527.067 309.95 430.03 406.986C332.993 504.023 254.273 600.959 205.437 679.222C181.015 718.361 164.098 752.782 156.084 780.183C152.076 793.883 150.311 805.778 150.917 815.602C151.522 825.418 154.489 833.104 159.887 838.502Z" stroke="#2B2C3B" stroke-width="2"/>
<path opacity="0.103448" d="M191.799 871.714C197.648 876.621 205.563 878.907 215.394 878.654C225.234 878.402 236.929 875.606 250.229 870.42C276.826 860.049 309.642 840.195 346.503 812.455C420.213 756.984 509.918 670.115 598.129 564.99C686.339 459.865 756.312 356.437 798.14 274.215C819.058 233.097 832.911 197.332 838.507 169.338C841.305 155.34 842.027 143.337 840.567 133.602C839.108 123.877 835.483 116.479 829.635 111.571C823.786 106.664 815.871 104.378 806.04 104.631C796.2 104.883 784.504 107.679 771.205 112.865C744.607 123.236 711.792 143.09 674.93 170.83C601.221 226.301 511.515 313.17 423.305 418.295C335.095 523.42 265.122 626.848 223.294 709.07C202.376 750.188 188.522 785.953 182.927 813.947C180.129 827.945 179.407 839.948 180.867 849.683C182.326 859.408 185.951 866.806 191.799 871.714Z" stroke="#2B2C3B" stroke-width="2"/>
<path opacity="0.137931" d="M226.138 902.032C232.392 906.411 240.476 907.998 250.248 906.89C260.028 905.781 271.436 901.977 284.232 895.651C309.825 883.001 340.786 860.363 375.089 829.516C443.683 767.832 525.476 673.475 604.189 561.062C682.901 448.649 743.593 339.516 778.096 253.962C795.351 211.177 806.034 174.341 809.169 145.965C810.736 131.776 810.409 119.756 808.106 110.186C805.806 100.624 801.549 93.5705 795.295 89.1917C789.042 84.8128 780.958 83.2256 771.185 84.3338C761.405 85.4429 749.998 89.2473 737.201 95.5726C711.609 108.223 680.648 130.861 646.345 161.708C577.75 223.392 495.957 317.749 417.245 430.162C338.533 542.575 277.841 651.708 243.337 737.262C226.083 780.047 215.399 816.883 212.265 845.259C210.698 859.448 211.024 871.468 213.327 881.038C215.628 890.6 219.885 897.654 226.138 902.032Z" stroke="#2B2C3B" stroke-width="2"/>
<path opacity="0.172414" d="M262.643 929.257C269.254 933.074 277.446 933.951 287.085 931.995C296.731 930.038 307.763 925.254 319.96 917.837C344.353 903.005 373.222 877.754 404.707 844.035C467.664 776.607 540.922 675.48 609.537 556.635C678.153 437.789 729.102 323.783 756.018 235.546C769.478 191.42 776.91 153.793 777.559 125.252C777.884 110.981 776.511 99.0351 773.383 89.7023C770.257 80.3775 765.402 73.7214 758.791 69.9043C752.179 66.0872 743.987 65.2106 734.349 67.1663C724.703 69.1236 713.67 73.9076 701.474 81.3242C677.081 96.157 648.211 121.407 616.727 155.127C553.77 222.554 480.512 323.681 411.896 442.527C343.281 561.372 292.331 675.379 265.416 763.615C251.956 807.741 244.524 845.368 243.874 873.909C243.55 888.18 244.923 900.126 248.051 909.459C251.176 918.784 256.032 925.44 262.643 929.257Z" stroke="#2B2C3B" stroke-width="2"/>
<path opacity="0.206897" d="M301.036 953.213C307.955 956.439 316.192 956.598 325.623 953.81C335.062 951.019 345.636 945.292 357.139 936.841C380.147 919.938 406.706 892.268 435.131 855.933C491.972 783.275 556.138 676.148 614.134 551.774C672.13 427.401 712.95 309.387 732.072 219.141C741.635 174.01 745.76 135.878 743.919 107.389C742.999 93.1443 740.59 81.3632 736.66 72.3386C732.734 63.3216 727.317 57.1141 720.398 53.8877C713.479 50.6613 705.242 50.502 695.811 53.2903C686.372 56.0809 675.798 61.8082 664.294 70.2597C641.287 87.1619 614.728 114.832 586.303 151.168C529.462 223.826 465.296 330.953 407.3 455.326C349.304 579.699 308.484 697.713 289.362 787.959C279.799 833.09 275.674 871.222 277.515 899.711C278.435 913.956 280.844 925.737 284.774 934.762C288.7 943.779 294.117 949.986 301.036 953.213Z" stroke="#2B2C3B" stroke-width="2"/>
<path opacity="0.241379" d="M341.024 973.747C348.198 976.358 356.418 975.799 365.57 972.199C374.73 968.597 384.764 961.969 395.487 952.548C416.934 933.704 440.98 903.825 466.131 865.15C516.423 787.815 571.008 675.503 617.943 546.548C664.879 417.593 695.257 296.471 706.442 204.902C712.035 159.109 712.821 120.763 708.504 92.5425C706.345 78.4319 702.919 66.9056 698.217 58.2578C693.52 49.6174 687.583 43.9055 680.409 41.2944C673.235 38.6834 665.016 39.2426 655.864 42.8422C646.703 46.4449 636.67 53.072 625.946 62.4939C604.5 81.337 580.453 111.217 555.303 149.891C505.011 227.227 450.426 339.539 403.49 468.493C356.555 597.448 326.176 718.57 314.992 810.14C309.399 855.933 308.613 894.279 312.93 922.499C315.088 936.61 318.515 948.136 323.216 956.784C327.913 965.424 333.85 971.136 341.024 973.747Z" stroke="#2B2C3B" stroke-width="2"/>
<path opacity="0.275862" d="M382.304 990.729C389.678 992.705 397.818 991.432 406.622 987.048C415.433 982.661 424.851 975.184 434.713 964.864C454.435 944.223 475.786 912.361 497.47 871.642C540.83 790.218 585.419 673.576 620.937 541.021C656.455 408.466 676.161 285.157 679.322 192.961C680.903 146.855 678.343 108.587 671.583 80.8501C668.203 66.9813 663.785 55.7975 658.348 47.5924C652.916 39.3942 646.503 34.2215 639.129 32.2456C631.755 30.2697 623.615 31.5433 614.812 35.9268C606.001 40.3142 596.582 47.7905 586.721 58.1112C566.998 78.7518 545.648 110.614 523.963 151.333C480.603 232.758 436.015 349.399 400.497 481.954C364.979 614.509 345.272 737.818 342.112 830.014C340.531 876.12 343.09 914.388 349.85 942.125C353.23 955.994 357.648 967.178 363.085 975.383C368.518 983.581 374.93 988.753 382.304 990.729Z" stroke="#2B2C3B" stroke-width="2"/>
<path opacity="0.310345" d="M424.562 1004.07C432.08 1005.39 440.078 1003.41 448.466 998.28C456.861 993.142 465.592 984.873 474.516 973.732C492.365 951.451 510.857 917.849 528.91 875.395C565.009 790.501 599.261 670.417 623.091 535.271C646.921 400.125 655.805 275.568 650.919 183.448C648.475 137.379 642.59 99.4792 633.439 72.4374C628.863 58.916 623.487 48.1598 617.355 40.4598C611.229 32.7663 604.39 28.1722 596.872 26.8465C589.354 25.5208 581.356 27.4989 572.968 32.6331C564.573 37.7717 555.842 46.0405 546.917 57.1814C529.069 79.4623 510.576 113.064 492.524 155.518C456.425 240.412 422.172 360.496 398.342 495.642C374.512 630.788 365.628 755.345 370.515 847.466C372.958 893.534 378.843 931.434 387.995 958.476C392.571 971.997 397.947 982.753 404.078 990.453C410.205 998.147 417.043 1002.74 424.562 1004.07Z" stroke="#2B2C3B" stroke-width="2"/>
<path opacity="0.344828" d="M467.475 1013.69C475.08 1014.35 482.875 1011.68 490.784 1005.84C498.699 999.987 506.676 990.989 514.596 979.112C530.434 955.36 545.928 920.275 560.212 876.409C588.774 788.692 612.43 666.08 624.391 529.371C636.351 392.662 634.346 267.805 621.449 176.461C615 130.781 605.834 93.5378 594.36 67.3965C588.623 54.3254 582.33 44.0787 575.551 36.9423C568.778 29.8121 561.564 25.8315 553.959 25.1661C546.354 24.5007 538.559 27.1683 530.65 33.014C522.735 38.8648 514.758 47.863 506.839 59.7393C491 83.4911 475.506 118.576 461.222 162.443C432.66 250.16 409.004 372.772 397.043 509.481C385.083 646.189 387.088 771.047 399.985 862.391C406.434 908.071 415.6 945.314 427.074 971.455C432.811 984.526 439.104 994.773 445.883 1001.91C452.657 1009.04 459.87 1013.02 467.475 1013.69Z" stroke="#2B2C3B" stroke-width="2"/>
<path opacity="0.37931" d="M510.717 1019.54C518.351 1019.54 525.884 1016.21 533.253 1009.69C540.629 1003.18 547.791 993.517 554.645 980.996C568.353 955.954 580.73 919.652 591.137 874.707C611.945 784.835 624.825 660.627 624.825 523.396C624.825 386.166 611.945 261.958 591.137 172.085C580.73 127.141 568.353 90.839 554.645 65.7972C547.791 53.2759 540.629 43.6166 533.253 37.0983C525.884 30.5855 518.351 27.2487 510.717 27.2487C503.083 27.2487 495.55 30.5855 488.181 37.0983C480.806 43.6166 473.643 53.2759 466.789 65.7972C453.081 90.839 440.704 127.141 430.298 172.085C409.489 261.958 396.609 386.166 396.609 523.396C396.609 660.627 409.489 784.835 430.298 874.707C440.704 919.652 453.081 955.954 466.789 980.996C473.643 993.517 480.806 1003.18 488.181 1009.69C495.55 1016.21 503.083 1019.54 510.717 1019.54Z" stroke="#2B2C3B" stroke-width="2"/>
<path opacity="0.413793" d="M553.959 1021.63C561.564 1020.96 568.778 1016.98 575.551 1009.85C582.33 1002.71 588.623 992.467 594.36 979.396C605.834 953.255 615 916.012 621.449 870.332C634.346 778.988 636.351 654.13 624.391 517.422C612.43 380.713 588.774 258.1 560.212 170.384C545.928 126.517 530.434 91.4321 514.596 67.6803C506.676 55.804 498.699 46.8057 490.784 40.955C482.875 35.1093 475.08 32.4417 467.475 33.1071C459.87 33.7724 452.657 37.753 445.883 44.8833C439.104 52.0196 432.811 62.2663 427.074 75.3375C415.6 101.479 406.434 138.722 399.985 184.402C387.088 275.746 385.083 400.603 397.043 537.312C409.004 674.021 432.66 796.633 461.222 884.35C475.506 928.216 491 963.301 506.839 987.053C514.758 998.93 522.735 1007.93 530.65 1013.78C538.559 1019.62 546.354 1022.29 553.959 1021.63Z" stroke="#2B2C3B" stroke-width="2"/>
<path opacity="0.448276" d="M596.872 1019.95C604.391 1018.62 611.229 1014.03 617.356 1006.33C623.487 998.633 628.863 987.877 633.439 974.355C642.591 947.314 648.476 909.414 650.919 863.345C655.806 771.225 646.922 646.668 623.092 511.522C599.262 376.376 565.009 256.292 528.91 171.398C510.858 128.943 492.365 95.342 474.517 73.061C465.592 61.9201 456.861 53.6513 448.466 48.5128C440.078 43.3786 432.08 41.4005 424.562 42.7262C417.044 44.0519 410.205 48.646 404.079 56.3395C397.947 64.0395 392.571 74.7957 387.995 88.3171C378.844 115.359 372.959 153.259 370.515 199.327C365.628 291.448 374.513 416.005 398.343 551.151C422.173 686.297 456.425 806.381 492.524 891.275C510.577 933.729 529.069 967.331 546.918 989.612C555.842 1000.75 564.573 1009.02 572.968 1014.16C581.356 1019.29 589.354 1021.27 596.872 1019.95Z" stroke="#2B2C3B" stroke-width="2"/>
<path opacity="0.482759" d="M639.13 1014.55C646.504 1012.57 652.916 1007.4 658.348 999.199C663.785 990.994 668.204 979.81 671.584 965.941C678.344 938.205 680.903 899.936 679.322 853.83C676.161 761.634 656.455 638.325 620.937 505.77C585.419 373.216 540.831 256.574 497.47 175.149C475.786 134.43 454.435 102.568 434.713 81.9275C424.851 71.6068 415.433 64.1304 406.622 59.7431C397.818 55.3595 389.679 54.086 382.305 56.0619C374.93 58.0378 368.518 63.2105 363.086 71.4086C357.649 79.6137 353.23 90.7976 349.85 104.666C343.091 132.403 340.531 170.671 342.112 216.778C345.273 308.973 364.979 432.282 400.497 564.837C436.015 697.392 480.603 814.034 523.964 895.458C545.648 936.178 566.999 968.039 586.721 988.68C596.583 999.001 606.001 1006.48 614.812 1010.86C623.616 1015.25 631.755 1016.52 639.13 1014.55Z" stroke="#2B2C3B" stroke-width="2"/>
<path opacity="0.517241" d="M680.41 1005.5C687.583 1002.89 693.521 997.177 698.218 988.537C702.919 979.889 706.346 968.363 708.504 954.252C712.821 926.032 712.035 887.686 706.442 841.893C695.258 750.323 664.879 629.201 617.944 500.246C571.008 371.292 516.423 258.98 466.131 181.644C440.981 142.97 416.934 113.09 395.488 94.2469C384.764 84.825 374.73 78.1979 365.57 74.5952C356.418 70.9956 348.198 70.4363 341.025 73.0474C333.851 75.6585 327.914 81.3704 323.216 90.0108C318.515 98.6586 315.089 110.185 312.93 124.295C308.613 152.516 309.399 190.862 314.992 236.655C326.176 328.224 356.555 449.346 403.491 578.301C450.426 707.256 505.011 819.568 555.303 896.903C580.453 935.578 604.5 965.457 625.946 984.301C636.67 993.722 646.704 1000.35 655.864 1003.95C665.016 1007.55 673.236 1008.11 680.41 1005.5Z" stroke="#2B2C3B" stroke-width="2"/>
<path opacity="0.551724" d="M720.398 992.905C727.317 989.678 732.734 983.471 736.66 974.454C740.59 965.429 742.999 953.648 743.919 939.403C745.76 910.914 741.635 872.782 732.072 827.651C712.949 737.405 672.13 619.391 614.134 495.018C556.138 370.645 491.972 263.517 435.131 190.859C406.706 154.524 380.146 126.854 357.139 109.951C345.635 101.5 335.062 95.7727 325.623 92.9821C316.192 90.1939 307.955 90.3531 301.036 93.5795C294.117 96.8059 288.7 103.013 284.774 112.03C280.844 121.055 278.435 132.836 277.515 147.081C275.674 175.57 279.799 213.702 289.362 258.833C308.484 349.079 349.304 467.093 407.3 591.466C465.296 715.84 529.462 822.967 586.302 895.625C614.728 931.96 641.287 959.63 664.294 976.533C675.798 984.984 686.371 990.711 695.811 993.502C705.242 996.29 713.479 996.131 720.398 992.905Z" stroke="#2B2C3B" stroke-width="2"/>
<path opacity="0.586207" d="M758.791 976.888C765.402 973.071 770.257 966.415 773.383 957.09C776.511 947.757 777.884 935.811 777.559 921.54C776.91 892.999 769.478 855.372 756.018 811.246C729.103 723.01 678.153 609.003 609.538 490.158C540.922 371.312 467.664 270.185 404.707 202.758C373.223 169.038 344.353 143.788 319.96 128.955C307.764 121.538 296.731 116.754 287.085 114.797C277.447 112.841 269.255 113.718 262.643 117.535C256.032 121.352 251.177 128.008 248.051 137.333C244.923 146.666 243.55 158.612 243.875 172.883C244.524 201.424 251.956 239.051 265.416 283.177C292.332 371.413 343.281 485.42 411.897 604.266C480.512 723.111 553.77 824.238 616.727 891.666C648.211 925.385 677.081 950.635 701.474 965.468C713.671 972.885 724.703 977.669 734.349 979.626C743.988 981.582 752.179 980.705 758.791 976.888Z" stroke="#2B2C3B" stroke-width="2"/>
<path opacity="0.62069" d="M795.295 957.601C801.549 953.222 805.805 946.168 808.106 936.606C810.409 927.036 810.736 915.016 809.169 900.827C806.034 872.452 795.351 835.615 778.096 792.831C743.593 707.276 682.901 598.143 604.189 485.73C525.476 373.318 443.683 278.96 375.089 217.276C340.786 186.429 309.825 163.791 284.232 151.141C271.436 144.815 260.028 141.011 250.248 139.902C240.476 138.794 232.392 140.381 226.138 144.76C219.884 149.139 215.628 156.192 213.327 165.754C211.024 175.324 210.698 187.345 212.265 201.533C215.399 229.909 226.083 266.745 243.337 309.53C277.84 395.084 338.533 504.217 417.245 616.63C495.957 729.043 577.75 823.4 646.345 885.084C680.648 915.931 711.609 938.569 737.201 951.22C749.998 957.545 761.405 961.349 771.185 962.458C780.957 963.567 789.042 961.979 795.295 957.601Z" stroke="#2B2C3B" stroke-width="2"/>
<path opacity="0.655172" d="M829.634 935.222C835.483 930.315 839.108 922.917 840.567 913.191C842.027 903.457 841.305 891.453 838.507 877.456C832.911 849.461 819.058 813.696 798.14 772.578C756.312 690.356 686.339 586.928 598.129 481.803C509.918 376.679 420.213 289.809 346.503 234.338C309.642 206.598 276.826 186.745 250.229 176.373C236.929 171.187 225.234 168.391 215.394 168.139C205.563 167.887 197.648 170.172 191.799 175.079C185.951 179.987 182.326 187.385 180.867 197.111C179.407 206.845 180.129 218.848 182.927 232.846C188.522 260.84 202.376 296.605 223.294 337.723C265.122 419.945 335.095 523.373 423.305 628.498C511.515 733.623 601.221 820.492 674.93 875.963C711.792 903.703 744.607 923.557 771.205 933.928C784.504 939.114 796.2 941.91 806.04 942.163C815.871 942.415 823.786 940.129 829.634 935.222Z" stroke="#2B2C3B" stroke-width="2"/>
<path opacity="0.689655" d="M861.546 909.949C866.945 904.551 869.911 896.865 870.517 887.049C871.123 877.224 869.357 865.33 865.35 851.629C857.336 824.229 840.418 789.807 815.996 750.669C767.161 672.405 688.44 575.47 591.403 478.433C494.367 381.396 397.431 302.675 319.168 253.84C280.029 229.418 245.608 212.5 218.207 204.486C204.506 200.479 192.612 198.713 182.788 199.319C172.972 199.925 165.286 202.892 159.887 208.29C154.489 213.688 151.522 221.374 150.917 231.19C150.311 241.014 152.076 252.909 156.084 266.61C164.098 294.01 181.015 328.431 205.437 367.57C254.273 445.834 332.993 542.769 430.03 639.806C527.067 736.843 624.003 815.564 702.266 864.399C741.405 888.821 775.826 905.739 803.226 913.753C816.927 917.76 828.822 919.526 838.646 918.92C848.462 918.314 856.148 915.347 861.546 909.949Z" stroke="#2B2C3B" stroke-width="2"/>
<path opacity="0.724138" d="M890.788 882.006C895.696 876.158 897.981 868.243 897.729 858.411C897.477 848.572 894.681 836.876 889.495 823.577C879.123 796.979 859.27 764.163 831.53 727.302C776.059 653.593 689.189 563.887 584.064 475.677C478.94 387.466 375.512 317.494 293.29 275.665C252.172 254.747 216.407 240.894 188.412 235.299C174.414 232.501 162.411 231.779 152.677 233.239C142.951 234.697 135.553 238.323 130.646 244.171C125.739 250.019 123.453 257.934 123.705 267.766C123.958 277.606 126.753 289.301 131.939 302.6C142.311 329.198 162.164 362.014 189.905 398.875C245.375 472.584 332.245 562.29 437.37 650.5C542.495 738.711 645.922 808.683 728.144 850.512C769.263 871.43 805.027 885.283 833.022 890.878C847.02 893.676 859.023 894.399 868.757 892.939C878.483 891.48 885.881 887.854 890.788 882.006Z" stroke="#2B2C3B" stroke-width="2"/>
<path opacity="0.758621" d="M917.137 851.637C921.516 845.383 923.103 837.299 921.995 827.527C920.886 817.747 917.082 806.34 910.756 793.543C898.106 767.95 875.468 736.99 844.621 702.686C782.937 634.092 688.58 552.299 576.167 473.587C463.754 394.874 354.621 334.182 269.067 299.679C226.282 282.424 189.446 271.741 161.07 268.607C146.881 267.039 134.861 267.366 125.291 269.669C115.729 271.97 108.675 276.226 104.297 282.48C99.9177 288.733 98.3305 296.818 99.4387 306.59C100.548 316.37 104.352 327.777 110.678 340.574C123.328 366.167 145.966 397.127 176.813 431.431C238.497 500.025 332.854 581.818 445.267 660.53C557.68 739.243 666.813 799.935 752.367 834.438C795.152 851.693 831.988 862.376 860.364 865.51C874.553 867.078 886.573 866.751 896.143 864.448C905.705 862.147 912.759 857.891 917.137 851.637Z" stroke="#2B2C3B" stroke-width="2"/>
<path opacity="0.793103" d="M940.393 819.101C944.211 812.49 945.087 804.298 943.131 794.66C941.174 785.013 936.39 773.981 928.973 761.784C914.141 737.392 888.891 708.522 855.171 677.038C787.743 614.08 686.616 540.822 567.771 472.207C448.926 403.591 334.919 352.642 246.682 325.727C202.556 312.267 164.929 304.834 136.388 304.185C122.117 303.86 110.171 305.233 100.838 308.362C91.5136 311.487 84.8576 316.342 81.0404 322.954C77.2233 329.565 76.3467 337.757 78.3024 347.395C80.2597 357.042 85.0437 368.074 92.4604 380.271C107.293 404.663 132.543 433.533 166.263 465.017C233.69 527.974 334.818 601.232 453.663 669.848C572.508 738.463 686.515 789.413 774.751 816.328C818.877 829.788 856.504 837.221 885.045 837.87C899.316 838.194 911.263 836.821 920.595 833.693C929.92 830.568 936.576 825.713 940.393 819.101Z" stroke="#2B2C3B" stroke-width="2"/>
<path opacity="0.827586" d="M960.38 784.678C963.606 777.759 963.765 769.522 960.977 760.091C958.186 750.652 952.459 740.078 944.008 728.574C927.105 705.567 899.435 679.008 863.1 650.583C790.442 593.742 683.315 529.576 558.941 471.58C434.568 413.584 316.554 372.764 226.308 353.642C181.177 344.079 143.045 339.954 114.556 341.795C100.311 342.715 88.53 345.124 79.5054 349.054C70.4885 352.98 64.2809 358.397 61.0545 365.316C57.8281 372.235 57.6689 380.472 60.4571 389.903C63.2477 399.342 68.9751 409.916 77.4265 421.42C94.3288 444.427 121.999 470.986 158.334 499.411C230.992 556.252 338.12 620.418 462.493 678.414C586.866 736.41 704.88 777.23 795.126 796.352C840.257 805.915 878.389 810.04 906.878 808.199C921.123 807.279 932.904 804.87 941.929 800.94C950.946 797.014 957.153 791.597 960.38 784.678Z" stroke="#2B2C3B" stroke-width="2"/>
<path opacity="0.862069" d="M976.943 748.659C979.554 741.485 978.995 733.265 975.395 724.113C971.792 714.953 965.165 704.919 955.743 694.195C936.9 672.749 907.02 648.702 868.346 623.552C791.01 573.26 678.699 518.675 549.744 471.74C420.789 424.804 299.667 394.425 208.097 383.241C162.304 377.648 123.958 376.862 95.7382 381.179C81.6277 383.337 70.1013 386.764 61.4535 391.465C52.8131 396.163 47.1013 402.1 44.4902 409.273C41.8791 416.447 42.4384 424.667 46.038 433.819C49.6407 442.979 56.2677 453.013 65.6896 463.737C84.5327 485.183 114.413 509.23 153.087 534.38C230.423 584.672 342.734 639.257 471.689 686.192C600.644 733.128 721.766 763.507 813.336 774.691C859.129 780.284 897.475 781.07 925.695 776.753C939.805 774.595 951.332 771.168 959.979 766.467C968.62 761.769 974.332 755.832 976.943 748.659Z" stroke="#2B2C3B" stroke-width="2"/>
<path opacity="0.896552" d="M989.959 711.347C991.935 703.973 990.661 695.834 986.278 687.03C981.89 678.219 974.414 668.801 964.093 658.939C943.453 639.217 911.591 617.866 870.871 596.182C789.447 552.821 672.805 508.233 540.25 472.715C407.695 437.197 284.386 417.491 192.191 414.33C146.084 412.749 107.816 415.308 80.0794 422.068C66.2106 425.448 55.0268 429.866 46.8217 435.304C38.6235 440.736 33.4508 447.148 31.4749 454.522C29.499 461.897 30.7726 470.036 35.1561 478.84C39.5435 487.651 47.0199 497.069 57.3405 506.931C77.9811 526.653 109.843 548.004 150.562 569.688C231.987 613.049 348.629 657.637 481.183 693.155C613.738 728.673 737.047 748.379 829.243 751.54C875.349 753.121 913.618 750.561 941.354 743.802C955.223 740.422 966.407 736.003 974.612 730.566C982.81 725.134 987.983 718.722 989.959 711.347Z" stroke="#2B2C3B" stroke-width="2"/>
<path opacity="0.931035" d="M999.327 673.06C1000.65 665.541 998.674 657.544 993.54 649.156C988.402 640.76 980.133 632.03 968.992 623.105C946.711 605.257 913.11 586.764 870.655 568.711C785.762 532.613 665.677 498.36 530.531 474.53C395.385 450.7 270.828 441.816 178.708 446.702C132.639 449.146 94.7393 455.031 67.6976 464.183C54.1762 468.759 43.42 474.135 35.72 480.266C28.0265 486.392 23.4323 493.231 22.1067 500.749C20.781 508.268 22.7591 516.265 27.8933 524.653C33.0318 533.049 41.3006 541.779 52.4415 550.704C74.7225 568.552 108.324 587.045 150.778 605.098C235.672 641.197 355.756 675.449 490.902 699.279C626.048 723.109 750.605 731.993 842.726 727.107C888.794 724.663 926.694 718.778 953.736 709.627C967.257 705.051 978.014 699.675 985.714 693.543C993.407 687.417 998.001 680.578 999.327 673.06Z" stroke="#2B2C3B" stroke-width="2"/>
<path opacity="0.965517" d="M1004.98 634.115C1005.64 626.51 1002.97 618.715 997.128 610.806C991.278 602.891 982.279 594.914 970.403 586.994C946.651 571.155 911.566 555.662 867.7 541.378C779.983 512.815 657.37 489.159 520.662 477.199C383.953 465.238 259.096 467.244 167.752 480.14C122.071 486.59 84.8286 495.756 58.6873 507.229C45.6162 512.966 35.3695 519.259 28.2332 526.039C21.1029 532.812 17.1223 540.025 16.4569 547.631C15.7915 555.236 18.4591 563.031 24.3049 570.939C30.1556 578.855 39.1538 586.832 51.0302 594.751C74.7819 610.59 109.867 626.083 153.734 640.367C241.45 668.93 364.063 692.586 500.771 704.546C637.48 716.507 762.338 714.502 853.682 701.605C899.362 695.155 936.605 685.989 962.746 674.516C975.817 668.779 986.064 662.486 993.2 655.707C1000.33 648.933 1004.31 641.72 1004.98 634.115Z" stroke="#2B2C3B" stroke-width="2"/>
<path d="M1006.86 594.843C1006.86 587.208 1003.53 579.676 997.015 572.306C990.497 564.931 980.838 557.769 968.316 550.914C943.274 537.206 906.972 524.829 862.028 514.423C772.156 493.614 647.948 480.734 510.717 480.734C373.486 480.734 249.279 493.614 159.406 514.423C114.462 524.829 78.1597 537.206 53.1179 550.914C40.5966 557.769 30.9373 564.931 24.419 572.306C17.9062 579.676 14.5694 587.208 14.5694 594.843C14.5694 602.477 17.9062 610.009 24.419 617.379C30.9373 624.754 40.5966 631.916 53.1179 638.771C78.1597 652.479 114.462 664.856 159.406 675.262C249.279 696.071 373.486 708.951 510.717 708.951C647.948 708.951 772.156 696.071 862.028 675.262C906.972 664.856 943.274 652.479 968.316 638.771C980.838 631.916 990.497 624.754 997.015 617.379C1003.53 610.009 1006.86 602.477 1006.86 594.843Z" stroke="#2B2C3B" stroke-width="2"/>
</g>
</svg>
