<svg width="606" height="1484" viewBox="0 0 606 1484" fill="none" xmlns="http://www.w3.org/2000/svg">
<g opacity="0.5">
<path opacity="0.0344828" d="M421.689 345.707C414.644 337.31 404.043 332.133 390.177 330.053C376.303 327.972 359.222 329.005 339.338 332.979C299.57 340.928 248.794 360.599 190.448 390.282C73.7696 449.639 -72.9821 548.924 -222.132 674.076C-371.282 799.228 -494.542 926.509 -573.258 1031.11C-612.622 1083.41 -640.812 1130 -655.545 1167.79C-662.912 1186.68 -666.895 1203.32 -667.255 1217.34C-667.614 1231.36 -664.356 1242.7 -657.311 1251.1C-650.265 1259.49 -639.664 1264.67 -625.798 1266.75C-611.924 1268.83 -594.844 1267.8 -574.959 1263.82C-535.191 1255.88 -484.415 1236.2 -426.069 1206.52C-309.391 1147.16 -162.639 1047.88 -13.4892 922.727C135.661 797.575 258.921 670.294 337.637 565.695C377 513.39 405.19 466.801 419.924 429.018C427.291 410.125 431.274 393.484 431.633 379.459C431.993 365.443 428.735 354.104 421.689 345.707Z" stroke="#2B2C3B" stroke-width="2"/>
<path opacity="0.0689655" d="M380.182 294.78C372.431 287.029 361.419 282.795 347.425 281.932C333.422 281.068 316.497 283.585 297.034 289.278C258.111 300.662 209.243 324.685 153.705 359.339C42.6443 428.64 -94.8957 540.337 -232.571 678.012C-370.245 815.687 -481.943 953.227 -551.243 1064.29C-585.898 1119.82 -609.92 1168.69 -621.305 1207.62C-626.997 1227.08 -629.514 1244 -628.65 1258.01C-627.787 1272 -623.553 1283.01 -615.803 1290.76C-608.052 1298.52 -597.04 1302.75 -583.046 1303.61C-569.043 1304.48 -552.117 1301.96 -532.655 1296.27C-493.731 1284.88 -444.863 1260.86 -389.326 1226.21C-278.265 1156.9 -140.725 1045.21 -3.05007 907.532C134.625 769.858 246.322 632.318 315.623 521.257C350.277 465.719 374.3 416.851 385.684 377.927C391.377 358.465 393.894 341.54 393.03 327.537C392.167 313.542 387.933 302.531 380.182 294.78Z" stroke="#2B2C3B" stroke-width="2"/>
<path opacity="0.103448" d="M334.884 247.641C326.487 240.595 315.148 237.337 301.132 237.697C287.107 238.057 270.466 242.04 251.573 249.407C213.79 264.14 167.201 292.33 114.896 331.693C10.2973 410.41 -116.984 533.67 -242.136 682.82C-367.288 831.97 -466.573 978.721 -525.93 1095.4C-555.612 1153.75 -575.284 1204.52 -583.233 1244.29C-587.207 1264.17 -588.24 1281.25 -586.159 1295.13C-584.079 1308.99 -578.901 1319.6 -570.505 1326.64C-562.108 1333.69 -550.769 1336.94 -536.753 1336.59C-522.728 1336.23 -506.086 1332.24 -487.194 1324.88C-449.411 1310.14 -402.822 1281.95 -350.516 1242.59C-245.918 1163.87 -118.637 1040.61 6.51509 891.463C131.667 742.313 230.952 595.561 290.309 478.883C319.992 420.536 339.663 369.76 347.612 329.993C351.586 310.108 352.619 293.028 350.538 279.154C348.458 265.288 343.28 254.687 334.884 247.641Z" stroke="#2B2C3B" stroke-width="2"/>
<path opacity="0.137931" d="M286.141 204.608C277.162 198.321 265.583 196.063 251.651 197.643C237.711 199.224 221.48 204.642 203.301 213.628C166.946 231.598 122.991 263.741 74.3155 307.514C-23.0241 395.047 -139.078 528.931 -250.755 688.421C-362.431 847.911 -448.548 1002.76 -497.51 1124.17C-521.994 1184.88 -537.166 1237.17 -541.618 1277.48C-543.844 1297.64 -543.384 1314.74 -540.102 1328.38C-536.822 1342.02 -530.74 1352.13 -521.761 1358.41C-512.783 1364.7 -501.203 1366.96 -487.271 1365.38C-473.331 1363.8 -457.1 1358.38 -438.921 1349.39C-402.566 1331.42 -358.612 1299.28 -309.936 1255.51C-212.596 1167.97 -96.5416 1034.09 15.1346 874.599C126.811 715.109 212.928 560.262 261.89 438.855C286.374 378.143 301.546 325.846 305.998 285.537C308.224 265.381 307.764 248.276 304.482 234.636C301.202 221.004 295.12 210.895 286.141 204.608Z" stroke="#2B2C3B" stroke-width="2"/>
<path opacity="0.172414" d="M234.324 165.966C224.831 160.486 213.099 159.246 199.357 162.034C185.608 164.824 169.911 171.636 152.585 182.172C117.934 203.242 76.9485 239.094 32.2728 286.942C-57.0674 382.626 -161.011 526.115 -258.362 694.732C-355.713 863.348 -428.007 1025.11 -466.201 1150.32C-485.301 1212.94 -495.856 1266.36 -496.779 1306.9C-497.24 1327.18 -495.291 1344.18 -490.832 1357.48C-486.376 1370.77 -479.436 1380.31 -469.944 1385.79C-460.451 1391.27 -448.719 1392.51 -434.978 1389.73C-421.229 1386.94 -405.531 1380.12 -388.205 1369.59C-353.554 1348.52 -312.569 1312.67 -267.893 1264.82C-178.553 1169.13 -74.6089 1025.64 22.7418 857.027C120.093 688.411 192.386 526.648 230.581 401.435C249.68 338.821 260.236 285.401 261.158 244.857C261.619 224.584 259.67 207.584 255.212 194.282C250.756 180.988 243.816 171.447 234.324 165.966Z" stroke="#2B2C3B" stroke-width="2"/>
<path opacity="0.206897" d="M179.826 131.966C169.892 127.333 158.096 127.121 144.65 131.096C131.197 135.074 116.153 143.228 99.8111 155.233C67.1284 179.244 29.4234 218.532 -10.912 270.091C-91.5729 373.197 -182.615 525.2 -264.9 701.66C-347.184 878.119 -405.104 1045.57 -432.24 1173.63C-445.81 1237.67 -451.67 1291.81 -449.055 1332.28C-447.747 1352.52 -444.324 1369.28 -438.723 1382.14C-433.125 1395 -425.38 1403.9 -415.446 1408.53C-405.513 1413.16 -393.717 1413.38 -380.271 1409.4C-366.817 1405.42 -351.773 1397.27 -335.432 1385.26C-302.749 1361.25 -265.044 1321.97 -224.708 1270.41C-144.048 1167.3 -53.005 1015.3 29.2794 838.838C111.564 662.378 169.484 494.93 196.62 366.865C210.19 302.824 216.049 248.687 213.435 208.217C212.127 187.981 208.704 171.216 203.103 158.353C197.505 145.498 189.76 136.598 179.826 131.966Z" stroke="#2B2C3B" stroke-width="2"/>
<path opacity="0.241379" d="M123.064 102.821C112.764 99.0721 100.994 99.8886 87.9459 105.021C74.8899 110.155 60.6142 119.59 45.381 132.974C14.9153 159.742 -19.222 202.166 -54.9103 257.045C-126.278 366.789 -203.726 526.148 -270.318 709.107C-336.91 892.067 -380.015 1063.93 -395.886 1193.87C-403.823 1258.85 -404.942 1313.29 -398.81 1353.38C-395.744 1373.42 -390.872 1389.83 -384.172 1402.15C-377.475 1414.47 -368.984 1422.66 -358.684 1426.41C-348.384 1430.16 -336.614 1429.34 -323.566 1424.21C-310.51 1419.08 -296.234 1409.64 -281.001 1396.26C-250.535 1369.49 -216.398 1327.07 -180.71 1272.19C-109.342 1162.44 -31.8941 1003.08 34.6977 820.124C101.29 637.165 144.395 465.305 160.266 335.363C168.203 270.383 169.322 215.941 163.19 175.853C160.124 155.808 155.252 139.405 148.551 127.079C141.855 114.761 133.363 106.57 123.064 102.821Z" stroke="#2B2C3B" stroke-width="2"/>
<path opacity="0.275862" d="M64.4677 78.7182C53.8802 75.8813 42.2266 77.7205 29.6753 83.9701C17.1166 90.2234 3.71749 100.866 -10.2913 115.527C-38.3081 144.848 -68.618 190.086 -99.3875 247.867C-160.919 363.413 -224.183 528.916 -274.576 716.983C-324.968 905.05 -352.931 1080.01 -357.417 1210.84C-359.66 1276.27 -356.03 1330.6 -346.427 1370C-341.625 1389.7 -335.343 1405.62 -327.593 1417.31C-319.848 1429 -310.675 1436.42 -300.088 1439.26C-289.501 1442.1 -277.847 1440.26 -265.296 1434.01C-252.737 1427.75 -239.338 1417.11 -225.329 1402.45C-197.312 1373.13 -167.002 1327.89 -136.233 1270.11C-74.7016 1154.56 -11.4373 989.061 38.9552 800.993C89.3477 612.926 117.311 437.964 121.796 307.133C124.039 241.708 120.409 187.376 110.806 147.975C106.005 128.274 99.7223 112.358 91.9727 100.663C84.2279 88.9747 75.0551 81.5551 64.4677 78.7182Z" stroke="#2B2C3B" stroke-width="2"/>
<path opacity="0.310345" d="M4.48444 59.7898C-6.30996 57.8865 -17.759 60.7344 -29.7177 68.0541C-41.6837 75.3781 -54.1042 87.1481 -66.7819 102.974C-92.1366 134.625 -118.388 182.333 -144.005 242.575C-195.231 363.045 -243.831 533.432 -277.64 725.176C-311.45 916.919 -324.057 1093.65 -317.123 1224.38C-313.656 1289.75 -305.304 1343.56 -292.304 1381.97C-285.803 1401.18 -278.157 1416.49 -269.418 1427.46C-260.684 1438.43 -250.899 1445.02 -240.105 1446.93C-229.311 1448.83 -217.862 1445.98 -205.903 1438.66C-193.937 1431.34 -181.516 1419.57 -168.839 1403.74C-143.484 1372.09 -117.232 1324.38 -91.6157 1264.14C-40.3892 1143.67 8.20993 973.284 42.0195 781.54C75.8291 589.797 88.4367 413.063 81.5024 282.338C78.0349 216.968 69.6832 163.159 56.683 124.744C50.1827 105.537 42.5367 90.2285 33.7974 79.2535C25.0634 68.2851 15.2788 61.6931 4.48444 59.7898Z" stroke="#2B2C3B" stroke-width="2"/>
<path opacity="0.344828" d="M-56.4296 46.1395C-67.3488 45.1842 -78.5061 49.0191 -89.7814 57.3532C-101.063 65.6923 -112.411 78.5 -123.661 95.3708C-146.161 129.111 -168.155 178.925 -188.423 241.171C-228.955 365.647 -262.519 539.621 -279.488 733.582C-296.458 927.543 -293.614 1104.7 -275.313 1234.33C-266.161 1299.14 -253.151 1352.02 -236.853 1389.16C-228.703 1407.72 -219.752 1422.31 -210.089 1432.48C-200.433 1442.65 -190.111 1448.36 -179.192 1449.31C-168.272 1450.27 -157.115 1446.43 -145.84 1438.1C-134.558 1429.76 -123.21 1416.95 -111.96 1400.08C-89.4605 1366.34 -67.4666 1316.53 -47.198 1254.28C-6.666 1129.81 26.8979 955.832 43.8673 761.872C60.8367 567.911 57.9929 390.752 39.6917 261.129C30.5399 196.309 17.5303 143.433 1.23147 106.297C-6.91813 87.7294 -15.8692 73.1458 -25.5318 62.9743C-35.1886 52.8089 -45.5104 47.0948 -56.4296 46.1395Z" stroke="#2B2C3B" stroke-width="2"/>
<path opacity="0.37931" d="M-117.811 37.827C-128.771 37.827 -139.552 42.6198 -150.058 51.9049C-160.57 61.1956 -170.758 74.9435 -180.495 92.7306C-199.969 128.304 -217.537 179.845 -232.304 243.621C-261.833 371.155 -280.106 547.393 -280.106 742.094C-280.106 936.796 -261.833 1113.03 -232.304 1240.57C-217.537 1304.34 -199.969 1355.88 -180.495 1391.46C-170.758 1409.25 -160.57 1422.99 -150.058 1432.28C-139.552 1441.57 -128.771 1446.36 -117.811 1446.36C-106.85 1446.36 -96.069 1441.57 -85.563 1432.28C-75.0507 1422.99 -64.8626 1409.25 -55.1257 1391.46C-35.6524 1355.88 -18.0838 1304.34 -3.31743 1240.57C26.2116 1113.03 44.4849 936.796 44.4849 742.094C44.4849 547.393 26.2116 371.155 -3.31743 243.621C-18.0838 179.845 -35.6524 128.304 -55.1257 92.7306C-64.8626 74.9435 -75.0507 61.1956 -85.563 51.9049C-96.069 42.6198 -106.85 37.827 -117.811 37.827Z" stroke="#2B2C3B" stroke-width="2"/>
<path opacity="0.413793" d="M-179.192 34.8743C-190.111 35.8296 -200.433 41.5436 -210.09 51.7091C-219.752 61.8806 -228.703 76.4642 -236.853 95.0322C-253.152 132.167 -266.161 185.044 -275.313 249.863C-293.614 379.486 -296.458 556.646 -279.489 750.607C-262.519 944.567 -228.955 1118.54 -188.423 1243.02C-168.155 1305.26 -146.161 1355.08 -123.661 1388.82C-112.411 1405.69 -101.064 1418.5 -89.7815 1426.84C-78.5062 1435.17 -67.349 1439 -56.4298 1438.05C-45.5106 1437.09 -35.1888 1431.38 -25.532 1421.21C-15.8694 1411.04 -6.91831 1396.46 1.2313 1377.89C17.5301 1340.76 30.5398 1287.88 39.6915 1223.06C57.9928 1093.44 60.8365 916.277 43.8671 722.317C26.8978 528.356 -6.66618 354.382 -47.1982 229.906C-67.4667 167.66 -89.4606 117.846 -111.96 84.1056C-123.21 67.2348 -134.558 54.4271 -145.84 46.088C-157.115 37.7538 -168.272 33.9189 -179.192 34.8743Z" stroke="#2B2C3B" stroke-width="2"/>
<path opacity="0.448276" d="M-240.106 37.2625C-250.9 39.1658 -260.685 45.7577 -269.419 56.7262C-278.158 67.7011 -285.804 83.0093 -292.304 102.217C-305.304 140.631 -313.656 194.44 -317.124 259.811C-324.058 390.536 -311.45 567.269 -277.641 759.013C-243.831 950.756 -195.232 1121.14 -144.005 1241.61C-118.389 1301.86 -92.1372 1349.56 -66.7825 1381.21C-54.1048 1397.04 -41.6842 1408.81 -29.7183 1416.13C-17.7595 1423.45 -6.3105 1426.3 4.4839 1424.4C15.2783 1422.5 25.0628 1415.9 33.7969 1404.93C42.5362 1393.96 50.1822 1378.65 56.6825 1359.44C69.6827 1321.03 78.0344 1267.22 81.5019 1201.85C88.4361 1071.13 75.8285 894.392 42.019 702.648C8.20938 510.905 -40.3897 340.518 -91.6163 220.048C-117.233 159.806 -143.485 112.098 -168.839 80.4468C-181.517 64.6207 -193.938 52.8508 -205.903 45.5267C-217.862 38.207 -229.311 35.3591 -240.106 37.2625Z" stroke="#2B2C3B" stroke-width="2"/>
<path opacity="0.482759" d="M-300.088 44.9322C-310.676 47.7691 -319.849 55.1887 -327.594 66.8766C-335.343 78.5715 -341.626 94.4878 -346.427 114.189C-356.03 153.59 -359.66 207.922 -357.417 273.347C-352.931 404.178 -324.968 579.14 -274.576 767.207C-224.184 955.275 -160.919 1120.78 -99.3879 1236.32C-68.6185 1294.1 -38.3086 1339.34 -10.2918 1368.66C3.71701 1383.32 17.1162 1393.97 29.6749 1400.22C42.2261 1406.47 53.8798 1408.31 64.4672 1405.47C75.0546 1402.64 84.2274 1395.22 91.9723 1383.53C99.7218 1371.83 106.004 1355.92 110.806 1336.22C120.409 1296.81 124.039 1242.48 121.796 1177.06C117.31 1046.23 89.3472 871.264 38.9547 683.197C-11.4377 495.13 -74.7021 329.627 -136.233 214.081C-167.003 156.3 -197.313 111.062 -225.33 81.7409C-239.338 67.08 -252.737 56.4374 -265.296 50.1841C-277.847 43.9345 -289.501 42.0953 -300.088 44.9322Z" stroke="#2B2C3B" stroke-width="2"/>
<path opacity="0.517241" d="M-358.684 57.7755C-368.984 61.5243 -377.475 69.7152 -384.172 82.0337C-390.873 94.3594 -395.745 110.763 -398.811 130.807C-404.943 170.896 -403.824 225.337 -395.887 290.317C-380.016 420.26 -336.91 592.119 -270.319 775.079C-203.727 958.038 -126.279 1117.4 -54.9109 1227.14C-19.2227 1282.02 14.9147 1324.44 45.3803 1351.21C60.6136 1364.6 74.8893 1374.03 87.9453 1379.17C100.993 1384.3 112.763 1385.11 123.063 1381.37C133.363 1377.62 141.854 1369.43 148.551 1357.11C155.252 1344.78 160.123 1328.38 163.189 1308.33C169.321 1268.25 168.202 1213.8 160.266 1148.82C144.394 1018.88 101.289 847.022 34.6971 664.062C-31.8948 481.102 -109.343 321.743 -180.711 211.999C-216.399 157.12 -250.536 114.696 -281.002 87.9285C-296.235 74.5443 -310.511 65.11 -323.567 59.9751C-336.615 54.8432 -348.384 54.0266 -358.684 57.7755Z" stroke="#2B2C3B" stroke-width="2"/>
<path opacity="0.551724" d="M-415.447 75.6576C-425.381 80.2899 -433.126 89.1897 -438.723 102.045C-444.324 114.908 -447.748 131.673 -449.055 151.909C-451.67 192.379 -445.81 246.516 -432.24 310.557C-405.104 438.622 -347.184 606.07 -264.9 782.53C-182.616 958.989 -91.5731 1110.99 -10.9122 1214.1C29.4233 1265.66 67.1282 1304.95 99.8109 1328.96C116.153 1340.96 131.196 1349.12 144.65 1353.09C158.096 1357.07 169.892 1356.86 179.826 1352.22C189.76 1347.59 197.505 1338.69 203.103 1325.84C208.704 1312.97 212.127 1296.21 213.434 1275.97C216.049 1235.5 210.19 1181.37 196.62 1117.32C169.484 989.259 111.564 821.811 29.2793 645.352C-53.0052 468.892 -144.048 316.889 -224.709 213.783C-265.044 162.223 -302.749 122.936 -335.432 98.9254C-351.773 86.9198 -366.817 78.7656 -380.271 74.7882C-393.717 70.813 -405.513 71.0254 -415.447 75.6576Z" stroke="#2B2C3B" stroke-width="2"/>
<path opacity="0.586207" d="M-469.944 98.3957C-479.437 103.876 -486.376 113.417 -490.832 126.711C-495.291 140.013 -497.24 157.013 -496.779 177.286C-495.857 217.83 -485.301 271.25 -466.201 333.865C-428.007 459.077 -355.713 620.84 -258.362 789.457C-161.012 958.073 -57.0677 1101.56 32.2725 1197.25C76.9482 1245.09 117.934 1280.95 152.585 1302.02C169.911 1312.55 185.608 1319.36 199.357 1322.15C213.098 1324.94 224.831 1323.7 234.323 1318.22C243.816 1312.74 250.756 1303.2 255.211 1289.91C259.67 1276.6 261.619 1259.6 261.158 1239.33C260.236 1198.79 249.68 1145.37 230.58 1082.75C192.386 957.541 120.092 795.778 22.7415 627.161C-74.6093 458.545 -178.553 315.055 -267.893 219.372C-312.569 171.524 -353.555 135.672 -388.206 114.601C-405.532 104.066 -421.229 97.2536 -434.978 94.4638C-448.719 91.6756 -460.452 92.9153 -469.944 98.3957Z" stroke="#2B2C3B" stroke-width="2"/>
<path opacity="0.62069" d="M-521.761 125.777C-530.74 132.064 -536.822 142.174 -540.102 155.806C-543.384 169.446 -543.845 186.551 -541.618 206.706C-537.166 247.016 -521.994 299.313 -497.51 360.024C-448.548 481.432 -362.431 636.278 -250.755 795.768C-139.079 955.258 -23.0242 1089.14 74.3155 1176.68C122.991 1220.45 166.946 1252.59 203.301 1270.56C221.48 1279.55 237.711 1284.97 251.651 1286.55C265.583 1288.13 277.162 1285.87 286.141 1279.58C295.12 1273.29 301.202 1263.19 304.482 1249.55C307.764 1235.91 308.224 1218.81 305.998 1198.65C301.546 1158.34 286.374 1106.05 261.89 1045.33C212.928 923.927 126.811 769.081 15.1345 609.591C-96.5417 450.1 -212.596 316.216 -309.936 228.683C-358.612 184.911 -402.566 152.768 -438.922 134.797C-457.1 125.812 -473.331 120.394 -487.271 118.813C-501.203 117.233 -512.783 119.49 -521.761 125.777Z" stroke="#2B2C3B" stroke-width="2"/>
<path opacity="0.655172" d="M-570.505 157.547C-578.901 164.592 -584.079 175.193 -586.159 189.059C-588.24 202.933 -587.207 220.014 -583.233 239.898C-575.284 279.666 -555.612 330.442 -525.93 388.788C-466.573 505.467 -367.288 652.218 -242.136 801.368C-116.984 950.518 10.2974 1073.78 114.896 1152.49C167.201 1191.86 213.79 1220.05 251.573 1234.78C270.466 1242.15 287.107 1246.13 301.132 1246.49C315.148 1246.85 326.488 1243.59 334.884 1236.55C343.281 1229.5 348.458 1218.9 350.538 1205.03C352.619 1191.16 351.586 1174.08 347.612 1154.2C339.663 1114.43 319.992 1063.65 290.309 1005.31C230.952 888.627 131.667 741.875 6.5152 592.725C-118.637 443.575 -245.918 320.315 -350.516 241.599C-402.822 202.236 -449.411 174.046 -487.194 159.312C-506.086 151.945 -522.728 147.962 -536.753 147.603C-550.769 147.243 -562.108 150.501 -570.505 157.547Z" stroke="#2B2C3B" stroke-width="2"/>
<path opacity="0.689655" d="M-615.803 193.424C-623.553 201.175 -627.787 212.187 -628.651 226.181C-629.514 240.184 -626.997 257.109 -621.305 276.572C-609.92 315.495 -585.898 364.364 -551.243 419.901C-481.943 530.962 -370.245 668.502 -232.571 806.177C-94.8959 943.851 42.6442 1055.55 153.705 1124.85C209.242 1159.5 258.111 1183.53 297.034 1194.91C316.497 1200.6 333.422 1203.12 347.425 1202.26C361.419 1201.39 372.431 1197.16 380.182 1189.41C387.932 1181.66 392.166 1170.65 393.03 1156.65C393.894 1142.65 391.376 1125.72 385.684 1106.26C374.3 1067.34 350.277 1018.47 315.623 962.932C246.322 851.871 134.625 714.331 -3.05017 576.656C-140.725 438.981 -278.265 327.284 -389.326 257.983C-444.863 223.329 -493.731 199.306 -532.655 187.922C-552.118 182.23 -569.043 179.712 -583.046 180.576C-597.04 181.44 -608.052 185.674 -615.803 193.424Z" stroke="#2B2C3B" stroke-width="2"/>
<path opacity="0.724138" d="M-657.311 233.091C-664.357 241.488 -667.615 252.827 -667.255 266.843C-666.895 280.868 -662.912 297.51 -655.545 316.402C-640.812 354.185 -612.622 400.774 -573.259 453.08C-494.542 557.678 -371.282 684.959 -222.132 810.111C-72.9824 935.263 73.7694 1034.55 190.448 1093.91C248.794 1123.59 299.57 1143.26 339.338 1151.21C359.222 1155.18 376.302 1156.21 390.177 1154.13C404.043 1152.05 414.644 1146.88 421.689 1138.48C428.735 1130.08 431.993 1118.74 431.633 1104.73C431.273 1090.7 427.291 1074.06 419.924 1055.17C405.19 1017.39 377 970.797 337.637 918.492C258.921 813.893 135.661 686.612 -13.4893 561.46C-162.639 436.308 -309.391 337.023 -426.069 277.666C-484.416 247.984 -535.191 228.312 -574.959 220.363C-594.844 216.389 -611.924 215.356 -625.798 217.437C-639.664 219.517 -650.265 224.695 -657.311 233.091Z" stroke="#2B2C3B" stroke-width="2"/>
<path opacity="0.758621" d="M-694.713 276.203C-701 285.182 -703.257 296.761 -701.677 310.693C-700.096 324.633 -694.678 340.864 -685.693 359.043C-667.722 395.398 -635.579 439.353 -591.807 488.028C-504.274 585.368 -370.39 701.422 -210.899 813.099C-51.4092 924.775 103.437 1010.89 224.845 1059.85C285.556 1084.34 337.853 1099.51 378.163 1103.96C398.318 1106.19 415.423 1105.73 429.063 1102.45C442.695 1099.17 452.805 1093.08 459.092 1084.11C465.379 1075.13 467.636 1063.55 466.056 1049.61C464.475 1035.67 459.057 1019.44 450.072 1001.27C432.101 964.91 399.958 920.956 356.186 872.28C268.653 774.94 134.768 658.886 -24.7217 547.209C-184.212 435.533 -339.058 349.416 -460.466 300.454C-521.177 275.97 -573.474 260.798 -613.784 256.346C-633.939 254.12 -651.044 254.58 -664.684 257.862C-678.316 261.142 -688.426 267.224 -694.713 276.203Z" stroke="#2B2C3B" stroke-width="2"/>
<path opacity="0.793103" d="M-727.724 322.39C-733.204 331.882 -734.444 343.615 -731.656 357.356C-728.866 371.105 -722.054 386.802 -711.518 404.128C-690.448 438.779 -654.596 479.765 -606.748 524.441C-511.064 613.781 -367.575 717.725 -198.958 815.076C-30.3418 912.426 131.421 984.72 256.634 1022.91C319.248 1042.01 372.669 1052.57 413.213 1053.49C433.485 1053.95 450.485 1052 463.787 1047.55C477.082 1043.09 486.622 1036.15 492.103 1026.66C497.583 1017.16 498.823 1005.43 496.035 991.691C493.245 977.942 486.433 962.245 475.897 944.919C454.827 910.268 418.975 869.282 371.127 824.607C275.443 735.266 131.954 631.322 -36.6628 533.972C-205.279 436.621 -367.042 364.327 -492.255 326.133C-554.869 307.033 -608.29 296.477 -648.834 295.555C-669.106 295.094 -686.106 297.043 -699.408 301.502C-712.703 305.958 -722.243 312.897 -727.724 322.39Z" stroke="#2B2C3B" stroke-width="2"/>
<path opacity="0.827586" d="M-756.094 371.256C-760.726 381.19 -760.938 392.986 -756.963 406.432C-752.986 419.885 -744.832 434.929 -732.826 451.271C-708.815 483.954 -669.528 521.658 -617.968 561.994C-514.862 642.655 -362.859 733.697 -186.4 815.982C-9.94026 898.266 157.508 956.186 285.573 983.322C349.614 996.892 403.751 1002.75 444.221 1000.14C464.457 998.829 481.222 995.406 494.085 989.805C506.94 984.207 515.84 976.462 520.472 966.528C525.105 956.594 525.317 944.798 521.342 931.353C517.364 917.899 509.21 902.855 497.205 886.513C473.194 853.831 433.906 816.126 382.347 775.79C279.241 695.129 127.238 604.087 -49.2217 521.802C-225.681 439.518 -393.129 381.598 -521.195 354.462C-585.235 340.892 -639.372 335.032 -679.842 337.647C-700.078 338.955 -716.844 342.378 -729.706 347.979C-742.562 353.577 -751.461 361.322 -756.094 371.256Z" stroke="#2B2C3B" stroke-width="2"/>
<path opacity="0.862069" d="M-779.605 422.388C-783.354 432.688 -782.537 444.457 -777.405 457.506C-772.27 470.562 -762.836 484.837 -749.452 500.071C-722.684 530.536 -680.26 564.674 -625.381 600.362C-515.637 671.729 -356.278 749.178 -173.318 815.769C9.6414 882.361 181.5 925.467 311.443 941.338C376.423 949.275 430.865 950.394 470.953 944.262C490.998 941.195 507.401 936.324 519.727 929.623C532.045 922.926 540.236 914.435 543.985 904.135C547.734 893.835 546.917 882.066 541.786 869.018C536.651 855.962 527.216 841.686 513.832 826.453C487.064 795.987 444.64 761.85 389.761 726.161C280.017 654.794 120.658 577.346 -62.3015 510.754C-245.261 444.162 -417.12 401.056 -547.063 385.185C-612.043 377.249 -666.485 376.13 -706.573 382.262C-726.617 385.328 -743.021 390.199 -755.347 396.9C-767.665 403.597 -775.856 412.088 -779.605 422.388Z" stroke="#2B2C3B" stroke-width="2"/>
<path opacity="0.896552" d="M-798.08 475.353C-800.917 485.941 -799.078 497.594 -792.828 510.146C-786.575 522.704 -775.933 536.103 -761.272 550.112C-731.951 578.129 -686.713 608.439 -628.932 639.208C-513.386 700.74 -347.883 764.004 -159.815 814.397C28.2517 864.789 203.214 892.752 334.045 897.238C399.47 899.481 453.802 895.85 493.203 886.248C512.904 881.446 528.82 875.164 540.515 867.414C552.203 859.669 559.623 850.496 562.46 839.909C565.297 829.322 563.457 817.668 557.208 805.117C550.955 792.558 540.312 779.159 525.651 765.15C496.33 737.133 451.092 706.823 393.311 676.054C277.765 614.523 112.262 551.258 -75.8051 500.866C-263.872 450.473 -438.834 422.51 -569.666 418.025C-635.09 415.782 -689.422 419.412 -728.824 429.015C-748.525 433.816 -764.441 440.099 -776.136 447.848C-787.824 455.593 -795.244 464.766 -798.08 475.353Z" stroke="#2B2C3B" stroke-width="2"/>
<path opacity="0.931035" d="M-811.378 529.705C-813.282 540.499 -810.434 551.948 -803.114 563.907C-795.79 575.873 -784.02 588.294 -768.194 600.971C-736.543 626.326 -688.835 652.578 -628.593 678.194C-508.123 729.421 -337.736 778.02 -145.993 811.83C45.7509 845.639 222.484 858.247 353.209 851.313C418.58 847.845 472.389 839.493 510.803 826.493C530.011 819.993 545.319 812.347 556.294 803.608C567.262 794.873 573.854 785.089 575.758 774.295C577.661 763.5 574.813 752.051 567.493 740.092C560.169 728.126 548.399 715.706 532.573 703.028C500.922 677.673 453.214 651.422 392.972 625.805C272.503 574.579 102.116 525.98 -89.628 492.17C-281.372 458.36 -458.105 445.753 -588.83 452.687C-654.2 456.155 -708.009 464.506 -746.424 477.506C-765.631 484.007 -780.94 491.653 -791.915 500.392C-802.883 509.126 -809.475 518.911 -811.378 529.705Z" stroke="#2B2C3B" stroke-width="2"/>
<path opacity="0.965517" d="M-819.397 584.99C-820.353 595.909 -816.518 607.066 -808.184 618.342C-799.844 629.624 -787.037 640.971 -770.166 652.221C-736.425 674.721 -686.611 696.715 -624.366 716.983C-499.89 757.515 -325.915 791.079 -131.955 808.049C62.0057 825.018 239.165 822.174 368.788 803.873C433.608 794.721 486.485 781.712 523.62 765.413C542.188 757.263 556.771 748.312 566.943 738.65C577.108 728.993 582.822 718.671 583.778 707.752C584.733 696.832 580.898 685.675 572.564 674.4C564.225 663.118 551.417 651.77 534.546 640.52C500.806 618.021 450.992 596.027 388.746 575.758C264.27 535.226 90.2957 501.662 -103.665 484.693C-297.626 467.724 -474.785 470.567 -604.408 488.868C-669.228 498.02 -722.104 511.03 -759.239 527.329C-777.807 535.478 -792.391 544.429 -802.562 554.092C-812.728 563.749 -818.442 574.071 -819.397 584.99Z" stroke="#2B2C3B" stroke-width="2"/>
<path d="M-822.078 640.739C-822.078 651.7 -817.285 662.48 -808 672.986C-798.71 683.499 -784.962 693.687 -767.174 703.424C-731.601 722.897 -680.06 740.466 -616.284 755.232C-488.75 784.761 -312.512 803.034 -117.811 803.034C76.8908 803.034 253.128 784.761 380.663 755.232C444.438 740.466 495.98 722.897 531.553 703.424C549.34 693.687 563.088 683.499 572.379 672.986C581.664 662.48 586.457 651.7 586.457 640.739C586.457 629.778 581.664 618.997 572.379 608.491C563.088 597.979 549.34 587.791 531.553 578.054C495.98 558.581 444.438 541.012 380.663 526.246C253.128 496.717 76.8908 478.443 -117.811 478.443C-312.512 478.443 -488.75 496.717 -616.284 526.246C-680.06 541.012 -731.601 558.581 -767.174 578.054C-784.962 587.791 -798.71 597.979 -808 608.491C-817.285 618.997 -822.078 629.778 -822.078 640.739Z" stroke="#2B2C3B" stroke-width="2"/>
</g>
</svg>
