<svg width="36" height="36" viewBox="0 0 36 36" fill="none" xmlns="http://www.w3.org/2000/svg">
<path d="M25.4301 29.9277H10.8468C6.47181 29.9277 3.55515 27.7402 3.55515 22.636V12.4277C3.55515 7.32352 6.47181 5.13602 10.8468 5.13602H25.4301C29.8051 5.13602 32.7218 7.32352 32.7218 12.4277V22.636C32.7218 27.7402 29.8051 29.9277 25.4301 29.9277Z" stroke="white" stroke-width="1.5" stroke-miterlimit="10" stroke-linecap="round" stroke-linejoin="round"/>
<path d="M18.1385 21.9069C20.5547 21.9069 22.5135 19.9481 22.5135 17.5319C22.5135 15.1156 20.5547 13.1569 18.1385 13.1569C15.7222 13.1569 13.7635 15.1156 13.7635 17.5319C13.7635 19.9481 15.7222 21.9069 18.1385 21.9069Z" stroke="white" stroke-width="1.5" stroke-miterlimit="10" stroke-linecap="round" stroke-linejoin="round"/>
<path d="M3.55515 13.1569H5.01348C9.38848 13.1569 10.8468 11.6985 10.8468 7.32354V5.8652" stroke="white" stroke-width="1.5" stroke-miterlimit="10" stroke-linecap="round" stroke-linejoin="round"/>
<path d="M32.7218 13.1569H31.2635C26.8885 13.1569 25.4301 11.6985 25.4301 7.32354V5.8652" stroke="white" stroke-width="1.5" stroke-miterlimit="10" stroke-linecap="round" stroke-linejoin="round"/>
<path d="M3.55515 21.9069H5.01348C9.38848 21.9069 10.8468 23.3652 10.8468 27.7402V29.1985" stroke="white" stroke-width="1.5" stroke-miterlimit="10" stroke-linecap="round" stroke-linejoin="round"/>
<path d="M32.7218 21.9069H31.2635C26.8885 21.9069 25.4301 23.3652 25.4301 27.7402V29.1985" stroke="white" stroke-width="1.5" stroke-miterlimit="10" stroke-linecap="round" stroke-linejoin="round"/>
</svg>
