<svg width="35" height="36" viewBox="0 0 35 36" fill="none" xmlns="http://www.w3.org/2000/svg">
<path d="M2.91667 16.9537V14.037C2.91667 8.93283 5.83334 6.74533 10.2083 6.74533H24.7917C29.1667 6.74533 32.0833 8.93283 32.0833 14.037V22.787C32.0833 27.8912 29.1667 30.0787 24.7917 30.0787H17.5" stroke="white" stroke-width="1.5" stroke-miterlimit="10" stroke-linecap="round" stroke-linejoin="round"/>
<path d="M17.5 22.0578C19.5135 22.0578 21.1458 20.4255 21.1458 18.412C21.1458 16.3984 19.5135 14.7661 17.5 14.7661C15.4865 14.7661 13.8542 16.3984 13.8542 18.412C13.8542 20.4255 15.4865 22.0578 17.5 22.0578Z" stroke="white" stroke-width="1.5" stroke-miterlimit="10" stroke-linecap="round" stroke-linejoin="round"/>
<path d="M26.9792 14.7661V22.0578" stroke="white" stroke-width="1.5" stroke-miterlimit="10" stroke-linecap="round" stroke-linejoin="round"/>
<path d="M2.91667 23.5161H10.7042C11.6375 23.5161 12.3958 24.2744 12.3958 25.2078V27.0745" stroke="white" stroke-width="1.5" stroke-miterlimit="10" stroke-linecap="round" stroke-linejoin="round"/>
<path d="M4.6958 21.737L2.91667 23.5162L4.6958 25.2953" stroke="white" stroke-width="1.5" stroke-miterlimit="10" stroke-linecap="round" stroke-linejoin="round"/>
<path d="M12.3958 31.2162H4.6083C3.67497 31.2162 2.91667 30.4578 2.91667 29.5245V27.6579" stroke="white" stroke-width="1.5" stroke-miterlimit="10" stroke-linecap="round" stroke-linejoin="round"/>
<path d="M10.6185 32.9958L12.3976 31.2167L10.6185 29.4374" stroke="white" stroke-width="1.5" stroke-miterlimit="10" stroke-linecap="round" stroke-linejoin="round"/>
</svg>
