<svg width="109" height="110" viewBox="0 0 109 110" fill="none" xmlns="http://www.w3.org/2000/svg">
<g filter="url(#filter0_ii_11_423)">
<path d="M2.21335 66.9903C8.85588 96.3478 37.8213 114.811 66.9093 108.23C95.9974 101.648 114.193 72.5137 107.551 43.1563C100.908 13.7989 71.9427 -4.66457 42.8546 1.91701C13.7665 8.4986 -4.42918 37.6329 2.21335 66.9903Z" fill="url(#paint0_linear_11_423)"/>
</g>
<path d="M2.24539 66.9831C8.88397 96.3231 37.832 114.775 66.9021 108.198C95.9722 101.62 114.157 72.5036 107.519 43.1636C100.88 13.8236 71.932 -4.62847 42.8619 1.94905C13.7918 8.52657 -4.3932 37.6431 2.24539 66.9831Z" stroke="url(#paint1_linear_11_423)" stroke-width="0.0656921" stroke-linecap="round"/>
<defs>
<filter id="filter0_ii_11_423" x="-1.65436" y="-2.6942" width="125.593" height="113.255" filterUnits="userSpaceOnUse" color-interpolation-filters="sRGB">
<feFlood flood-opacity="0" result="BackgroundImageFix"/>
<feBlend mode="normal" in="SourceGraphic" in2="BackgroundImageFix" result="shape"/>
<feColorMatrix in="SourceAlpha" type="matrix" values="0 0 0 0 0 0 0 0 0 0 0 0 0 0 0 0 0 0 127 0" result="hardAlpha"/>
<feOffset dx="15.02" dy="-3.28"/>
<feGaussianBlur stdDeviation="12.5128"/>
<feComposite in2="hardAlpha" operator="arithmetic" k2="-1" k3="1"/>
<feColorMatrix type="matrix" values="0 0 0 0 0.625 0 0 0 0 0.0338542 0 0 0 0 0.0338542 0 0 0 0.76 0"/>
<feBlend mode="normal" in2="shape" result="effect1_innerShadow_11_423"/>
<feColorMatrix in="SourceAlpha" type="matrix" values="0 0 0 0 0 0 0 0 0 0 0 0 0 0 0 0 0 0 127 0" result="hardAlpha"/>
<feOffset dx="-2.5" dy="1"/>
<feGaussianBlur stdDeviation="3.75383"/>
<feComposite in2="hardAlpha" operator="arithmetic" k2="-1" k3="1"/>
<feColorMatrix type="matrix" values="0 0 0 0 1 0 0 0 0 0.829417 0 0 0 0 0.629167 0 0 0 1 0"/>
<feBlend mode="normal" in2="effect1_innerShadow_11_423" result="effect2_innerShadow_11_423"/>
</filter>
<linearGradient id="paint0_linear_11_423" x1="96.6861" y1="29" x2="-1.3139" y2="84" gradientUnits="userSpaceOnUse">
<stop stop-color="#FFC56F"/>
<stop offset="1" stop-color="#6D1400"/>
</linearGradient>
<linearGradient id="paint1_linear_11_423" x1="446.213" y1="-68.0618" x2="470.268" y2="38.2508" gradientUnits="userSpaceOnUse">
<stop stop-color="#BDBDBD"/>
<stop offset="1" stop-color="#BDBDBD" stop-opacity="0"/>
</linearGradient>
</defs>
</svg>
