<svg width="55" height="47" viewBox="0 0 55 47" fill="none" xmlns="http://www.w3.org/2000/svg">
<path d="M40.9797 0.564209C34.5803 11.4605 31.0446 16.8942 27.4797 16.8942C23.9148 16.8942 20.379 11.4605 14.0089 0.564209C20.379 11.4605 23.418 17.2105 21.6355 20.2292C19.8531 23.248 13.2784 23.5642 0.508911 23.5642C13.7459 23.5642 20.3206 23.8805 21.8109 27.2155C23.2135 30.3205 20.1745 36.0417 14.0089 46.5642C20.4083 35.668 23.944 30.2342 27.5089 30.2342C31.0738 30.2342 34.6096 35.668 41.0089 46.5642C34.2297 34.978 31.2492 29.228 33.7622 26.353C35.9829 23.823 42.5284 23.5642 54.5089 23.5642C41.0089 23.5642 34.4342 23.2192 33.1193 19.683C31.9212 16.5205 34.9602 10.828 40.9797 0.564209Z" fill="white"/>
</svg>
