<svg width="27" height="28" viewBox="0 0 27 28" fill="none" xmlns="http://www.w3.org/2000/svg">
<path d="M13.262 27.2734C20.5643 27.2734 26.4789 21.3607 26.4789 14.0608C26.4789 6.76081 20.5643 0.848166 13.262 0.848166C5.95962 0.848166 0.0450287 6.76081 0.0450287 14.0608C0.0450287 21.3607 5.95962 27.2734 13.262 27.2734Z" fill="#117BDE"/>
<path d="M8.25055 6.35342L8.97749 7.08011L8.25055 7.7958L7.52363 7.08011L8.25055 6.35342ZM8.25055 12.7836C7.42449 12.7836 6.76365 12.5633 6.26802 12.156C5.77238 11.7045 5.50804 11.0549 5.5521 10.3833C5.5521 9.70061 5.70629 9.00695 6.01469 8.3243L6.56539 8.50047C6.4112 9.02897 6.3341 9.49141 6.3341 9.87678C6.3341 10.9338 6.98393 11.4733 8.28359 11.4733C8.76822 11.4733 9.24183 11.3522 9.68239 11.143C9.90267 11.0549 10.0569 10.9228 10.178 10.7466C10.2992 10.5925 10.3653 10.3943 10.3653 10.1961C10.3653 10.053 10.3102 9.83274 10.178 9.53546C10.0569 9.24919 9.91369 8.96291 9.75949 8.68765L10.4203 7.6967C10.4754 7.60862 10.5525 7.63064 10.6406 7.76277C11.0151 8.36835 11.2134 9.062 11.2134 9.83274C11.2134 10.7686 10.949 11.4843 10.4424 12.0128C9.9247 12.5303 9.19777 12.7836 8.26157 12.7836H8.25055ZM8.26157 16.2409C8.26157 16.7914 8.27258 17.0997 8.28359 17.1657C8.31664 17.452 8.39374 17.6502 8.53692 17.7383C8.64706 17.8154 8.82329 17.8484 9.05459 17.8484H9.18675C9.26385 17.8484 9.2969 18.0025 9.2969 18.3108V18.6411C9.2969 19.0375 9.26385 19.2357 9.18675 19.2357H9.03255C8.80126 19.2357 8.59199 19.2027 8.41577 19.1586C8.09636 19.0926 7.83202 18.8944 7.67782 18.6081C7.60072 18.465 7.53463 18.3218 7.49058 18.1677C7.44652 18.0135 7.41348 17.8374 7.39145 17.6172C7.3474 17.1657 7.33638 16.7253 7.3474 16.2739V16.0537C7.3474 15.1178 7.25929 15.0407 7.09408 14.0608L7.93114 13.5323C8.0523 13.4552 8.1294 13.4222 8.15143 13.4332C8.17346 13.4552 8.19549 13.5433 8.19549 13.6974C8.21752 14.1048 8.23954 14.1378 8.26157 16.2409Z" fill="white"/>
<path d="M9.14269 19.2357C8.96647 19.2357 8.87836 19.0155 8.87836 18.5531V18.3989C8.87836 18.0356 8.96647 17.8484 9.14269 17.8484H9.25284C9.71543 17.8374 10.145 17.6062 10.3983 17.2208C10.5635 17.0116 10.7177 16.8024 10.8719 16.5932C11.0041 16.417 11.1473 16.2519 11.3125 16.1087C11.3896 16.0427 11.4667 15.9766 11.5548 15.9326C11.709 15.8555 11.8852 15.8114 12.0614 15.8004C12.3478 15.8004 12.6011 15.9105 12.8324 16.1087C13.0527 16.3179 13.2399 16.5712 13.3501 16.8905C13.4712 17.2098 13.5373 17.5291 13.5373 17.8594C13.5373 18.2227 13.4162 18.5641 13.1739 18.8944C12.9426 19.2247 12.6892 19.3788 12.4249 19.3788C11.9293 19.3788 11.3235 19.0706 10.6296 18.454C10.4093 18.7072 10.189 18.8944 9.94673 19.0265C9.70442 19.1696 9.47312 19.2357 9.24182 19.2357H9.13169H9.14269ZM12.4359 18.1347C12.6562 18.1347 12.7663 18.0356 12.7663 17.8484C12.7663 17.6282 12.7003 17.408 12.5571 17.1878C12.4249 16.9675 12.2597 16.8574 12.0945 16.8574C12.0064 16.8574 11.9183 16.8574 11.8412 16.9015C11.753 16.9455 11.687 17.0006 11.6209 17.0777C11.4997 17.1988 11.3786 17.3309 11.2905 17.474C11.7861 17.9145 12.1716 18.1347 12.4359 18.1347ZM15.9274 17.8924H16.5772C16.423 17.2648 16.1367 16.9455 15.7071 16.9455C15.5529 16.9455 15.4097 17.0006 15.2996 17.1107C15.1895 17.2208 15.1344 17.3639 15.1344 17.5511C15.1344 17.6942 15.1895 17.7823 15.3106 17.8264C15.4207 17.8704 15.63 17.8924 15.9274 17.8924ZM14.2973 20.8763C15.5199 20.4138 16.2358 19.8633 16.4561 19.2247C16.2248 19.2247 15.9825 19.2247 15.7512 19.2027C15.5529 19.1807 15.3657 19.1476 15.1784 19.0926C15.0022 19.0375 14.848 18.9715 14.7379 18.8724C14.6277 18.7733 14.5286 18.6522 14.4735 18.52C14.4074 18.3549 14.3744 18.1677 14.3744 17.9915C14.3744 17.474 14.5066 16.9675 14.7599 16.5161C14.8811 16.2959 15.0463 16.1307 15.2335 15.9986C15.608 15.7454 16.0926 15.7344 16.4781 15.9766C16.6653 16.0867 16.8195 16.2519 16.9407 16.4501C17.172 16.8905 17.3152 17.3639 17.3482 17.8594H17.8218C17.8989 17.8594 17.932 18.0025 17.932 18.2998V18.6522C17.932 19.0375 17.8989 19.2357 17.8218 19.2357H17.2711C17.161 19.8743 16.8746 20.4689 16.4671 20.9644C16.1697 21.2837 15.8173 21.5259 15.4207 21.691C15.3106 21.7351 15.1895 21.7571 15.0683 21.7681C14.9141 21.7681 14.7709 21.7131 14.6498 21.636L14.2092 21.3497C14.1211 21.2947 14.033 21.2286 13.9669 21.1515C13.9338 21.1075 13.9338 21.0635 13.9889 21.0304C14.033 20.9864 14.1431 20.9423 14.2973 20.8763Z" fill="white"/>
<path d="M20.4212 17.0336C20.4212 17.7273 20.2339 18.2668 19.8704 18.6522C19.4519 19.0595 18.8682 19.2687 18.2844 19.2357H17.7778C17.6015 19.2357 17.5134 19.0155 17.5134 18.5531V18.3989C17.5134 18.0356 17.6015 17.8484 17.7778 17.8484H18.3064C18.736 17.8484 19.0334 17.8374 19.2206 17.7933C19.4079 17.7493 19.496 17.6502 19.496 17.485C19.496 17.2318 19.3748 16.8024 19.1105 16.1968L19.7493 15.371C19.7493 15.371 19.8374 15.2719 19.8815 15.2279C19.9035 15.2279 19.9255 15.2279 19.9365 15.2609L20.0026 15.371C20.278 15.8445 20.4212 16.395 20.4212 17.0226V17.0336ZM19.9145 13.3231L20.6084 14.0057L19.9145 14.6994L19.2316 14.0057L19.9145 13.3231ZM18.4496 13.3231L19.1325 14.0057L18.4496 14.6994L17.7557 14.0057L18.4496 13.3231Z" fill="white"/>
</svg>
