<svg width="27" height="28" viewBox="0 0 27 28" fill="none" xmlns="http://www.w3.org/2000/svg">
<path d="M26.5207 13.8566C26.5207 21.1565 20.6061 27.0692 13.3037 27.0692C6.00137 27.0692 0.086792 21.1565 0.086792 13.8566C0.086792 6.55661 6.00137 0.643974 13.3037 0.643974C20.6061 0.643974 26.5207 6.55661 26.5207 13.8566Z" fill="#1BA27A"/>
<path fill-rule="evenodd" clip-rule="evenodd" d="M7.27902 7.25028H19.736V10.2561H15.0109V12.238C18.7007 12.4032 21.4872 13.1189 21.4872 13.9997C21.4872 14.8805 18.6896 15.5852 15.0109 15.7394V22.0814H12.0041V15.7394C8.34739 15.5852 5.59386 14.8585 5.59386 13.9887C5.59386 13.1189 8.34739 12.4032 12.0041 12.249V10.2561H7.27902V7.25028ZM12.0151 12.4142C8.83201 12.5463 6.46397 13.1079 6.46397 13.7575C6.46397 14.5282 9.63604 15.1448 13.535 15.1448C17.434 15.1448 20.6171 14.5282 20.6171 13.7575C20.6171 13.0968 18.216 12.5463 15.0109 12.4142V14.6714H12.0041V12.4252H12.0151V12.4142Z" fill="white"/>
</svg>
