<svg width="32" height="31" viewBox="0 0 32 31" fill="none" xmlns="http://www.w3.org/2000/svg">
<path d="M23.5579 27.9258C22.4212 28.2617 21.0779 28.4167 19.5021 28.4167H11.7521C10.1762 28.4167 8.83291 28.2617 7.69624 27.9258C7.98041 24.5675 11.4292 21.9196 15.6271 21.9196C19.825 21.9196 23.2737 24.5675 23.5579 27.9258Z" stroke="white" stroke-width="1.5" stroke-linecap="round" stroke-linejoin="round"/>
<path d="M19.5021 2.58334H11.7521C5.29374 2.58334 2.71041 5.16668 2.71041 11.625V19.375C2.71041 24.2575 4.18291 26.9313 7.69625 27.9258C7.98041 24.5675 11.4292 21.9196 15.6271 21.9196C19.825 21.9196 23.2737 24.5675 23.5579 27.9258C27.0712 26.9313 28.5437 24.2575 28.5437 19.375V11.625C28.5437 5.16668 25.9604 2.58334 19.5021 2.58334ZM15.6271 18.3029C13.0696 18.3029 11.0029 16.2234 11.0029 13.6659C11.0029 11.1084 13.0696 9.04168 15.6271 9.04168C18.1846 9.04168 20.2512 11.1084 20.2512 13.6659C20.2512 16.2234 18.1846 18.3029 15.6271 18.3029Z" stroke="white" stroke-width="1.5" stroke-linecap="round" stroke-linejoin="round"/>
<path d="M20.2512 13.6658C20.2512 16.2233 18.1846 18.3029 15.6271 18.3029C13.0696 18.3029 11.0029 16.2233 11.0029 13.6658C11.0029 11.1083 13.0696 9.04166 15.6271 9.04166C18.1846 9.04166 20.2512 11.1083 20.2512 13.6658Z" stroke="white" stroke-width="1.5" stroke-linecap="round" stroke-linejoin="round"/>
</svg>
