<svg width="56" height="52" viewBox="0 0 56 52" fill="none" xmlns="http://www.w3.org/2000/svg">
<path d="M10.7239 12.9393C10.1769 14.0995 9.63221 15.2572 8.93835 16.7296C8.33684 11.8344 6.92543 7.4869 5.17774 3.35553C9.49723 4.64778 13.8309 5.94484 18.0438 7.20587C17.151 7.64302 16.0025 8.20748 14.9345 8.72871C16.9498 10.7584 18.9106 12.7328 20.7222 14.5583C21.2195 12.9009 21.5605 10.9289 22.3775 9.18748C25.3637 2.8295 30.4292 -0.187362 37.3797 0.00959878C46.156 0.257001 53.843 7.21788 55.0128 16.0331C55.1218 16.8497 55.2094 17.676 55.226 18.4975C55.2591 20.1909 54.0656 21.5047 52.55 21.5047C51.0367 21.5047 49.8811 20.311 49.8716 18.62C49.8574 15.8721 49.0357 13.3933 47.5177 11.1499C44.117 6.12499 37.4791 3.9344 32.3521 6.18263C28.8331 7.72469 26.9433 10.5878 26.3347 14.3397C25.7261 18.0843 26.8841 21.2237 29.5506 23.9019C34.2348 28.6049 38.8385 33.392 43.4776 38.1407C43.7713 38.4409 44.0791 38.7244 44.5078 39.1399C45.1211 37.8717 45.6705 36.7331 46.1205 35.7988C47.3235 39.9662 48.5691 44.2777 49.7272 48.2986C45.8363 47.1312 41.6068 45.863 37.4436 44.614C38.3577 44.1696 39.4542 43.634 40.3849 43.18C38.4051 41.1624 36.4324 39.1519 34.5498 37.2327C34.2916 38.3232 34.0619 39.6924 33.6428 40.9966C31.2415 48.4763 24.2981 52.8647 16.6135 51.8102C8.09292 50.6405 1.95234 44.7725 0.370419 36.248C0.180968 35.2295 0.0886125 34.1799 0.0838763 33.1446C0.07914 31.4921 1.27978 30.2767 2.79066 30.2743C4.28969 30.2719 5.44534 31.4945 5.49981 33.147C5.76504 40.915 11.5551 46.5427 19.1805 46.4443C24.2199 46.3794 28.5134 42.2961 28.9917 37.1775C29.3327 33.5097 28.2671 30.4232 25.6574 27.8123C21.0135 23.1693 16.4359 18.459 11.8393 13.768C11.5457 13.4678 11.3349 13.0835 11.0839 12.7376C10.9631 12.8048 10.8423 12.8745 10.7239 12.9417V12.9393Z" fill="white"/>
</svg>
